<?xml version="1.0" encoding="UTF-8"?>
<svg id="Layer_1_copy" xmlns="http://www.w3.org/2000/svg" version="1.1" viewBox="0 0 150 150">
  <!-- Generator: Adobe Illustrator 30.2.1, SVG Export Plug-In . SVG Version: 2.1.1 Build 1)  -->
  <defs>
    <style>
      .st0 {
        fill: #fff;
      }
    </style>
  </defs>
  <path class="st0" d="M88.67,90.64h-2.53v3.13h2.53c.97,0,1.7-.61,1.7-1.56s-.73-1.56-1.7-1.56Z"/>
  <path class="st0" d="M52.97,70.9c0-1.89-1.35-3.51-3.87-3.51h-8.24v7.06h8.24c2.43,0,3.87-1.4,3.87-3.55Z"/>
  <polygon class="st0" points="66.09 95.86 69.85 95.86 67.98 90.66 66.09 95.86"/>
  <path class="st0" d="M52.39,58.62c0-1.84-1.35-3.28-3.51-3.28h-8.01v6.61h8.01c2.16,0,3.51-1.4,3.51-3.33Z"/>
  <path class="st0" d="M129.15,17.74H20.85c-1.72,0-3.11,1.39-3.11,3.11v108.3c0,1.72,1.39,3.11,3.11,3.11h108.3c1.72,0,3.11-1.39,3.11-3.11V20.85c0-1.72-1.39-3.11-3.11-3.11ZM96.53,49.89l7.47,12.06,7.38-12.06h7.29l-11.47,17.73v12.28h-6.39v-12.28l-11.56-17.73h7.29ZM64.31,49.89h14.04c6.25,0,10.08,4.09,10.08,9.67s-3.33,8.15-6.57,8.91l6.75,11.43h-7.33l-5.9-10.75h-4.68v10.75h-6.39v-30.01ZM34.48,49.89h15.79c5.71,0,8.64,3.64,8.64,7.65,0,3.78-2.34,6.3-5.17,6.88,3.19.5,5.76,3.6,5.76,7.38,0,4.5-3.02,8.1-8.73,8.1h-16.29v-30.01ZM39.4,90.69h-3.3v9.21h-2.43v-9.21h-3.31v-2.12h9.04v2.12ZM51.15,99.9h-2.43v-4.76h-5.35v4.76h-2.41v-11.34h2.41v4.45h5.35v-4.45h2.43v11.34ZM61.4,90.64h-5.61v2.46h5.49v2.07h-5.49v2.63h5.61v2.09h-8.02v-11.34h8.02v2.07ZM71.23,99.9l-.71-1.96h-5.07l-.71,1.96h-2.65l4.39-11.34h3.03l4.37,11.34h-2.63ZM82.17,90.69h-3.3v9.21h-2.43v-9.21h-3.31v-2.12h9.04v2.12ZM90.13,99.9l-2.23-4.06h-1.77v4.06h-2.41v-11.34h5.3c2.36,0,3.81,1.55,3.81,3.66s-1.26,3.08-2.48,3.37l2.55,4.32h-2.77ZM97.07,99.9h-2.41v-11.34h2.41v11.34ZM104.71,97.97c1.26,0,2.28-.71,2.75-1.65l2.07,1c-.82,1.41-2.24,2.79-4.83,2.79-3.31,0-5.95-2.38-5.95-5.86s2.63-5.86,5.95-5.86c2.58,0,4.03,1.36,4.83,2.77l-2.07,1.02c-.48-.92-1.5-1.65-2.75-1.65-1.97,0-3.47,1.58-3.47,3.72s1.5,3.72,3.47,3.72ZM115.02,100.11c-2.18,0-3.74-.73-4.81-1.8l1.33-1.84c.8.83,2.04,1.53,3.6,1.53,1.33,0,1.97-.63,1.97-1.27,0-.85-.99-1.14-2.29-1.44-1.85-.43-4.23-.94-4.23-3.47,0-1.89,1.63-3.42,4.3-3.42,1.8,0,3.3.54,4.42,1.58l-1.34,1.77c-.92-.85-2.14-1.24-3.25-1.24s-1.67.48-1.67,1.16c0,.76.95,1,2.26,1.31,1.87.43,4.25.99,4.25,3.5,0,2.07-1.48,3.64-4.54,3.64Z"/>
  <path class="st0" d="M81.91,59.52c0-2.52-1.94-4.14-4.5-4.14h-6.71v8.28h6.71c2.56,0,4.5-1.62,4.5-4.14Z"/>
</svg>