<?xml version="1.0" encoding="UTF-8"?>
<svg id="Layer_1" xmlns="http://www.w3.org/2000/svg" version="1.1" viewBox="0 0 2159.11 307.82">
  <!-- Generator: Adobe Illustrator 30.3.0, SVG Export Plug-In . SVG Version: 2.1.3 Build 182)  -->
  <defs>
    <style>
      .st0 {
        fill: #3a817c;
      }

      .st1 {
        fill: #362242;
      }

      .st1, .st2 {
        fill-rule: evenodd;
      }

      .st3 {
        fill: #77578e;
      }

      .st4 {
        isolation: isolate;
      }

      .st5 {
        fill: #84c7c6;
      }

      .st6 {
        fill: #362244;
      }

      .st2 {
        fill: #38817d;
      }
    </style>
  </defs>
  <g id="Shape_2">
    <path class="st3" d="M193.15,183.97v98.55l137.13-74.51,4.69-80.76-141.81,56.72h-.01ZM288.45,164.14c-1.08,3.13-3,3.97-3,3.97l-29.68,12.86s-1.62.45-2.52-.6c-.22-.26-2.14-2.05-.24-7.21.87-2.36,4.09-4.21,4.09-4.21l28.6-11.9s1.55-.52,2.28.36c.14.16,2.1,2.02.48,6.73h-.01Z"/>
  </g>
  <g id="Rectangle_3_copy">
    <polygon class="st1" points="42.21 127.25 46.89 208.01 184.02 282.52 184.02 183.97 42.21 127.25"/>
  </g>
  <g id="Shape_1">
    <polygon class="st1" points="305.16 114.03 188.59 156.69 72.01 114.03 46.89 120.76 188.59 175.92 330.28 120.76 305.16 114.03"/>
  </g>
  <g id="Shape_2_copy">
    <path class="st5" d="M193.15,88.31v58.05l108.04-38.22,2.52-49.99-110.57,30.17h.01ZM269.95,85.55c-1.08,3.13-3,3.85-3,3.85l-29.2,9.01s-2.1.21-3-.84c-.22-.26-2.14-2.29-.24-7.45.87-2.36,3.61-3.37,3.61-3.37l28-8.17s2.15-.64,2.88.24c.14.16,2.58,2.02.96,6.73h0Z"/>
  </g>
  <g id="Rectangle_3">
    <polygon class="st2" points="73.45 58.15 75.98 108.14 184.02 146.36 184.02 88.31 73.45 58.15"/>
  </g>
  <g id="Rectangle_2">
    <polygon class="st2" points="188.59 31.71 77.78 52.02 188.59 81.22 299.39 52.02 188.59 31.71"/>
  </g>
  <g class="st4">
    <g class="st4">
      <path class="st6" d="M1496.32,217.96V74.36h26.2c15,0,27.2,1.6,36.2,7,10.8,6.4,17.2,17.6,17.2,30,0,11.4-5.2,20-15,27.6,16.8,8,25.2,19.6,25.2,37,0,11.8-4,21.6-12.4,29.6-9.6,9.4-20,12.4-34.6,12.4h-42.8ZM1523.72,100.36v30.2h6c12.8,0,19.4-5.6,19.4-15.6,0-9.2-6.2-14.6-18.4-14.6h-7ZM1523.72,154.96v37h9.2c17.2,0,26.4-4.8,26.4-17s-9.6-20-28.8-20h-6.8Z"/>
      <path class="st6" d="M1612.32,74.36h27.4v117.6h39.8v26h-67.2V74.36Z"/>
      <path class="st6" d="M1842.71,146.56c0,42.2-33,74.8-74.2,74.8s-75.2-33.6-75.2-75.4,34-75.2,74.8-75.2,74.6,32,74.6,75.8ZM1720.91,146.56c0,29.2,22,48.6,47.4,48.6s46.8-21.4,46.8-48.8-19.8-49.4-47.2-49.4c-25.8,0-47,20-47,49.6Z"/>
      <path class="st6" d="M1999.71,193.96c-19,18.6-35.4,27.6-62.4,27.6-45,0-76-31.4-76-75.6s35.2-75.2,76.4-75.2c23.8,0,46.8,10.4,62.6,28.8l-19.2,18.4c-13-13.8-27.2-21-44-21-27,0-49,20.8-49,49,0,29.6,21.2,49.4,49.6,49.4,17.8,0,29.8-7.2,43.4-20.8l18.6,19.4Z"/>
      <path class="st6" d="M2024.71,74.36h27.4v49.4l39-49.4h33l-50.4,64,55.2,79.6h-32.4l-44.4-63.8v63.8h-27.4V74.36Z"/>
    </g>
  </g>
  <g class="st4">
    <g class="st4">
      <path class="st0" d="M381.55,74.36h33c15,0,26.4,1,33.4,3.6,14.8,5.6,23.6,18.4,23.6,34.6,0,7.2-1,11.4-4.2,17.8-7.4,15-21.8,20.8-45.6,20.8l51.8,66.8h-17.8l-51.6-66.8h-8.2v66.8h-14.4V74.36ZM395.95,88.36v48.8c8,0,16.2.2,23.8.2,12.4,0,22-1.2,28.2-6.2,5.2-4.2,8.6-11.2,8.6-18.6,0-14-9.6-24.2-31.2-24.2h-29.4Z"/>
      <path class="st0" d="M502.35,74.36h82v14h-67.6v45h67.6v14h-67.6v56.6h67.6v14h-82V74.36Z"/>
      <path class="st0" d="M609.35,74.36h14.4v60.2h73.2v-60.2h14.4v143.6h-14.4v-69.4h-73.2v69.4h-14.4V74.36Z"/>
      <path class="st0" d="M746.15,74.36h82v14h-67.6v45h67.6v14h-67.6v56.6h67.6v14h-82V74.36Z"/>
      <path class="st0" d="M911.95,74.36l67,143.6h-15.4l-22.6-47.2h-62l-22.4,47.2h-16l68-143.6h3.4ZM910.15,104.76l-24.8,52h49.2l-24.4-52Z"/>
      <path class="st0" d="M1001.94,74.36h33c15,0,26.4,1,33.4,3.6,14.8,5.6,23.6,18.4,23.6,34.6,0,7.2-1,11.4-4.2,17.8-7.4,15-21.8,20.8-45.6,20.8l51.8,66.8h-17.8l-51.6-66.8h-8.2v66.8h-14.4V74.36ZM1016.34,88.36v48.8c8,0,16.2.2,23.8.2,12.4,0,22-1.2,28.2-6.2,5.2-4.2,8.6-11.2,8.6-18.6,0-14-9.6-24.2-31.2-24.2h-29.4Z"/>
      <path class="st0" d="M1177.74,103.16c-7.8-10.2-14.6-17.6-26.4-17.6-12.4,0-19.4,8.8-19.4,18.2,0,7.8,4.6,16,12.8,22.2,27,20,46.8,33.8,46.8,57,0,20.2-17,38.6-40.4,38.6-19.8,0-32.8-11-43.4-30.4l12.2-7.4c8.6,15.8,19,23.8,30,23.8,15,0,26.6-11,26.6-24.4,0-15.8-14.8-24.8-47.4-51.2-6.8-5.4-12.2-16.8-12.2-27.6,0-19.8,15.4-33.6,34.8-33.6,17.6,0,28.2,10.6,37.6,23.4l-11.6,9Z"/>
      <path class="st0" d="M1280.94,74.36l67,143.6h-15.4l-22.6-47.2h-62l-22.4,47.2h-16l68-143.6h3.4ZM1279.14,104.76l-24.8,52h49.2l-24.4-52Z"/>
      <path class="st0" d="M1370.34,74.36h14.4v129.6h55.2v14h-69.6V74.36Z"/>
    </g>
  </g>
</svg>