<?xml version="1.0" encoding="UTF-8"?>
<svg id="Layer_1" xmlns="http://www.w3.org/2000/svg" version="1.1" viewBox="0 0 2159.11 307.82">
  <!-- Generator: Adobe Illustrator 29.8.5, SVG Export Plug-In . SVG Version: 2.1.1 Build 2)  -->
  <defs>
    <style>
      .st0 {
        fill: #362244;
        font-family: CenturyGothicPro-Bold, 'Century Gothic Pro';
        font-weight: 700;
      }

      .st0, .st1 {
        font-size: 200px;
      }

      .st1 {
        fill: #3a817c;
        font-family: CenturyGothicPro, 'Century Gothic Pro';
      }

      .st2 {
        fill: #362242;
      }

      .st2, .st3 {
        fill-rule: evenodd;
      }

      .st3 {
        fill: #38817d;
      }

      .st4 {
        fill: #84c7c6;
      }

      .st5 {
        fill: #77578e;
      }
    </style>
  </defs>
  <g id="Shape_2">
    <path class="st5" d="M193.15,183.97v98.55l137.13-74.51,4.69-80.76-141.81,56.72ZM288.45,164.14c-1.08,3.13-3,3.97-3,3.97l-29.68,12.86s-1.62.45-2.52-.6c-.22-.26-2.14-2.05-.24-7.21.87-2.36,4.09-4.21,4.09-4.21l28.6-11.9s1.55-.52,2.28.36c.14.16,2.1,2.02.48,6.73Z"/>
  </g>
  <g id="Rectangle_3_copy">
    <polygon class="st2" points="42.21 127.25 46.89 208.01 184.02 282.52 184.02 183.97 42.21 127.25"/>
  </g>
  <g id="Shape_1">
    <polygon class="st2" points="305.16 114.03 188.59 156.69 72.01 114.03 46.89 120.76 188.59 175.92 330.28 120.76 305.16 114.03"/>
  </g>
  <g id="Shape_2_copy">
    <path class="st4" d="M193.15,88.31v58.05l108.04-38.22,2.52-49.99-110.57,30.17ZM269.95,85.55c-1.08,3.13-3,3.85-3,3.85l-29.2,9.01s-2.1.21-3-.84c-.22-.26-2.14-2.29-.24-7.45.87-2.36,3.61-3.37,3.61-3.37l28-8.17s2.15-.64,2.88.24c.14.16,2.58,2.02.96,6.73Z"/>
  </g>
  <g id="Rectangle_3">
    <polygon class="st3" points="73.45 58.15 75.98 108.14 184.02 146.36 184.02 88.31 73.45 58.15"/>
  </g>
  <g id="Rectangle_2">
    <polygon class="st3" points="188.59 31.71 77.78 52.02 188.59 81.22 299.39 52.02 188.59 31.71"/>
  </g>
  <text class="st0" transform="translate(1479.92 217.96)"><tspan x="0" y="0">BLOCK</tspan></text>
  <text class="st1" transform="translate(363.35 217.96)"><tspan x="0" y="0">REHEARSAL</tspan></text>
</svg>